<svg width="24" height="24" viewBox="0 0 24 24" fill="none" xmlns="http://www.w3.org/2000/svg">
<g id="Group 13065">
<g id="Group 13064">
<g id="Group">
<path id="Vector" d="M5.51886 19.0483C5.6462 19.1684 5.81411 19.2361 5.98917 19.2378C6.16423 19.2395 6.33346 19.1751 6.46312 19.0575C6.59267 18.9399 6.67322 18.7777 6.68848 18.6034C6.76662 17.7032 7.12504 16.8502 7.71326 16.1643C8.30159 15.4786 9.09007 14.9944 9.96782 14.7801C10.1557 14.7338 10.3158 14.6113 10.4096 14.442C10.5033 14.2726 10.5223 14.072 10.4618 13.8881C10.4015 13.7042 10.2671 13.5539 10.0912 13.4732C9.47521 13.1937 9.02166 12.6467 8.86118 11.9896C8.70059 11.3324 8.85083 10.638 9.26863 10.1059C9.68632 9.5738 10.3254 9.26307 11.0019 9.26307C11.6783 9.26307 12.3173 9.5738 12.735 10.1059C13.1528 10.6379 13.303 11.3323 13.1424 11.9896C12.982 12.6467 12.5285 13.1937 11.9125 13.4732C11.7424 13.5569 11.6139 13.7063 11.5566 13.887C11.4994 14.0676 11.5184 14.2637 11.6092 14.43C11.7 14.5963 11.8547 14.7185 12.0376 14.768C13.4783 15.1156 14.8354 16.3164 15.2647 17.6095C15.7861 19.1927 16.8844 19.2586 17.3293 19.2136C17.9028 19.1562 18.6327 19.0015 19.1888 18.3134C20.3218 16.9092 20.9996 14.7335 20.9996 12.4934C20.9996 10.0603 20.2454 7.91593 18.8742 6.44916L18.8743 6.44906C18.7505 6.30665 18.574 6.22068 18.3856 6.21094C18.1971 6.2013 18.0128 6.26859 17.875 6.39744C17.7371 6.52629 17.6576 6.70565 17.6547 6.89437C17.6518 7.08298 17.7256 7.26475 17.8594 7.39793C20.2732 9.98052 20.0126 15.0776 18.1061 17.439C17.9445 17.6406 17.7342 17.7745 17.1885 17.83C16.94 17.8543 16.7367 17.6337 16.5837 17.1714C16.1372 15.8228 15.0041 14.6064 13.6348 13.8975C14.2725 13.2101 14.6164 12.3007 14.593 11.3634C14.5696 10.4261 14.1807 9.53498 13.5095 8.88027C12.8384 8.22567 11.9378 7.85919 11.0002 7.85919C10.0625 7.85919 9.1621 8.22567 8.4908 8.88027C7.81964 9.53498 7.43085 10.4261 7.40745 11.3634C7.38405 12.3007 7.72793 13.2101 8.36557 13.8975C7.07954 14.5618 6.09374 15.6898 5.60764 17.0534C4.80872 15.9341 4.38298 14.5913 4.39113 13.2161C4.39485 11.4658 5.09173 9.78846 6.32945 8.55077C7.56706 7.31306 9.24473 6.61618 10.9948 6.61246C13.0437 6.61246 15.0059 7.55782 16.1181 9.08022C17.3242 10.7312 17.5292 12.9609 16.7107 15.5242C16.6415 15.7589 16.7008 16.0128 16.8669 16.1926C17.0329 16.3724 17.2813 16.4515 17.5208 16.4011C17.7602 16.3507 17.9556 16.178 18.035 15.9465C19.2515 12.1512 18.2731 9.67118 17.2408 8.26021C15.8609 6.35724 13.5236 5.22229 10.995 5.22229C8.87615 5.22641 6.84515 6.07003 5.34702 7.56824C3.84881 9.06656 3.00518 11.0975 3.00106 13.2163C2.99594 14.3095 3.21689 15.392 3.65025 16.3956C4.08359 17.3993 4.71992 18.3025 5.51915 19.0484L5.51886 19.0483Z" fill="#505050"/>
</g>
</g>
</g>
</svg>
